<svg width="33" height="33" viewBox="0 0 33 33" fill="none" xmlns="http://www.w3.org/2000/svg">
<circle cx="16.5" cy="16.5" r="16.5" fill="#9398A7"/>
<path d="M26.1666 21.8333C26.1666 22.2754 25.991 22.6993 25.6785 23.0118C25.3659 23.3244 24.942 23.5 24.5 23.5H9.49998C9.05795 23.5 8.63403 23.3244 8.32147 23.0118C8.00891 22.6993 7.83331 22.2754 7.83331 21.8333V12.6667C7.83331 12.2246 8.00891 11.8007 8.32147 11.4882C8.63403 11.1756 9.05795 11 9.49998 11H12.8333L14.5 8.5H19.5L21.1666 11H24.5C24.942 11 25.3659 11.1756 25.6785 11.4882C25.991 11.8007 26.1666 12.2246 26.1666 12.6667V21.8333Z" stroke="black" stroke-width="1.5" stroke-linecap="round" stroke-linejoin="round"/>
<path d="M17 20.1667C18.841 20.1667 20.3334 18.6743 20.3334 16.8333C20.3334 14.9924 18.841 13.5 17 13.5C15.1591 13.5 13.6667 14.9924 13.6667 16.8333C13.6667 18.6743 15.1591 20.1667 17 20.1667Z" stroke="black" stroke-width="1.5" stroke-linecap="round" stroke-linejoin="round"/>
</svg>
