<svg xmlns="http://www.w3.org/2000/svg" xmlns:xlink="http://www.w3.org/1999/xlink" version="1.1" width="1000" height="1000" viewBox="0 0 1000 1000" xml:space="preserve">
<desc>Created with Fabric.js 3.5.0</desc>
<defs>
</defs>
<rect x="0" y="0" width="100%" height="100%" fill="#ffffff"/>
<g transform="matrix(17.8134 0 0 17.8134 499.9998 481.7469)" id="571612">
<g style="" vector-effect="non-scaling-stroke">
		<g transform="matrix(1 0 0 1 0 0)">
<circle style="stroke: none; stroke-width: 1; stroke-dasharray: none; stroke-linecap: butt; stroke-dashoffset: 0; stroke-linejoin: miter; stroke-miterlimit: 4; is-custom-font: none; font-file-url: none; fill: rgb(147,152,167); fill-rule: nonzero; opacity: 1;" cx="0" cy="0" r="16.5"/>
</g>
		<g transform="matrix(1 0 0 1 0.4999 -0.5)">
<path style="stroke: rgb(0,0,0); stroke-width: 1.5; stroke-dasharray: none; stroke-linecap: round; stroke-dashoffset: 0; stroke-linejoin: round; stroke-miterlimit: 4; is-custom-font: none; font-file-url: none; fill: none; fill-rule: nonzero; opacity: 1;" transform=" translate(-17, -16)" d="M 26.1666 21.8333 C 26.1666 22.2754 25.991 22.6993 25.6785 23.0118 C 25.3659 23.3244 24.942 23.5 24.5 23.5 H 9.49998 C 9.05795 23.5 8.63403 23.3244 8.32147 23.0118 C 8.00891 22.6993 7.83331 22.2754 7.83331 21.8333 V 12.6667 C 7.83331 12.2246 8.00891 11.8007 8.32147 11.4882 C 8.63403 11.1756 9.05795 11 9.49998 11 H 12.8333 L 14.5 8.5 H 19.5 L 21.1666 11 H 24.5 C 24.942 11 25.3659 11.1756 25.6785 11.4882 C 25.991 11.8007 26.1666 12.2246 26.1666 12.6667 V 21.8333 Z" stroke-linecap="round"/>
</g>
		<g transform="matrix(1 0 0 1 0.5001 0.3333)">
<path style="stroke: rgb(0,0,0); stroke-width: 1.5; stroke-dasharray: none; stroke-linecap: round; stroke-dashoffset: 0; stroke-linejoin: round; stroke-miterlimit: 4; is-custom-font: none; font-file-url: none; fill: none; fill-rule: nonzero; opacity: 1;" transform=" translate(-17.0001, -16.8333)" d="M 17 20.1667 C 18.841 20.1667 20.3334 18.6743 20.3334 16.8333 C 20.3334 14.9924 18.841 13.5 17 13.5 C 15.1591 13.5 13.6667 14.9924 13.6667 16.8333 C 13.6667 18.6743 15.1591 20.1667 17 20.1667 Z" stroke-linecap="round"/>
</g>
</g>
</g>
</svg>